# 3ds Max Wavefront OBJ Exporter v0.99 - (c)2007 guruware
# File Created: 23.10.2024 15:32:30

mtllib EmptyBoard.mtl

#
# object Box001
#

v  -54.5667 5.9943 47.2387
v  23.3774 5.9943 47.2387
v  23.3774 5.9943 -33.4979
v  -54.5667 5.9943 -33.4979
# 4 vertices

vn 0.0000 1.0000 -0.0000
# 1 vertex normals

vt 0.0348 0.0337 0.0000
vt 0.9652 0.0337 0.0000
vt 0.9652 0.9663 0.0000
vt 0.0348 0.9663 0.0000
# 4 texture coords

o Box001
g Box001
usemtl wire_132192219
s 1
f 1/1/1 2/2/1 3/3/1 4/4/1 
# 1 polygons

#
# object Object001
#

v  -57.4840 0.0000 50.1560
v  -57.4840 0.0000 -36.4152
v  26.2947 0.0000 -36.4152
v  26.2947 0.0000 50.1560
v  26.2947 4.4735 50.1560
v  -57.4840 4.4735 50.1560
v  26.2947 4.4735 -36.4152
v  -57.4840 4.4735 -36.4152
v  23.3774 5.9943 47.2387
v  -54.5667 5.9943 47.2387
v  -56.7547 5.6141 49.4266
v  25.5653 5.6141 49.4266
v  23.3774 5.9943 -33.4979
v  25.5653 5.6141 -35.6859
v  -54.5667 5.9943 -33.4979
v  -56.7547 5.6141 -35.6859
# 16 vertices

vn -0.5774 -0.5774 0.5774
vn -0.5774 -0.5774 -0.5774
vn 0.5774 -0.5774 -0.5774
vn 0.5774 -0.5774 0.5774
vn 0.6928 0.2000 0.6928
vn -0.6928 0.2000 0.6928
vn 0.6928 0.2000 -0.6928
vn -0.6928 0.2000 -0.6928
vn 0.1622 0.9733 0.1622
vn -0.1622 0.9733 0.1622
vn -0.5135 0.6874 0.5135
vn 0.5135 0.6874 0.5135
vn 0.1622 0.9733 -0.1622
vn 0.5135 0.6874 -0.5135
vn -0.1622 0.9733 -0.1622
vn -0.5135 0.6874 -0.5135
# 16 vertex normals

vt 1.0000 0.0000 0.0000
vt 1.0000 1.0000 0.0000
vt 0.0000 1.0000 0.0000
vt 0.0000 0.0000 0.0000
vt 1.0000 0.7463 0.0000
vt 0.0000 0.7463 0.0000
vt 0.9652 0.0337 0.0000
vt 0.0348 0.0337 0.0000
vt 0.9652 0.9663 0.0000
vt 0.0348 0.9663 0.0000
# 10 texture coords

o Object001
g Object001
usemtl wire_085015009
s 1
f 5/5/2 6/6/3 7/7/4 8/8/5 
s 2
f 5/8/2 8/5/5 9/9/6 10/10/7 
s 4
f 8/8/5 7/5/4 11/9/8 9/10/6 
s 2
f 7/8/4 6/5/3 12/9/9 11/10/8 
s 4
f 6/8/3 5/5/2 10/9/7 12/10/9 
s 1
f 13/11/10 14/12/11 15/8/12 16/5/13 
f 17/13/14 13/11/10 16/5/13 18/6/15 
f 19/14/16 17/13/14 18/6/15 20/7/17 
f 14/12/11 19/14/16 20/7/17 15/8/12 
s 2
f 10/10/7 9/9/6 16/6/13 15/7/12 
s 4
f 9/10/6 11/9/8 18/6/15 16/7/13 
s 2
f 11/10/8 12/9/9 20/6/17 18/7/15 
s 4
f 12/10/9 10/9/7 15/6/12 20/7/17 
# 13 polygons

