# 3ds Max Wavefront OBJ Exporter v0.99 - (c)2007 guruware
# File Created: 23.10.2024 15:44:02

mtllib Between_Tile.mtl

#
# object Box003
#

v  93.2425 0.0000 91.2906
v  24.9957 0.0000 92.0185
v  47.4573 0.0000 55.3897
v  69.3486 0.0000 55.5796
v  93.2425 2.8710 91.2906
v  69.3486 2.8710 55.5796
v  47.4573 2.8710 55.3897
v  24.9957 2.8710 92.0185
v  95.9157 0.4640 91.5695
v  70.1171 0.4640 53.0118
v  70.1171 1.3556 53.0118
v  95.9157 1.3556 91.5695
v  46.5937 0.4640 52.8445
v  46.5937 1.3556 52.8445
v  22.3417 0.4640 92.3932
v  22.3417 1.3556 92.3932
v  95.2474 0.1160 91.4998
v  23.0052 0.1160 92.2996
v  46.8096 0.1160 53.4808
v  69.9249 0.1160 53.6537
v  95.2474 2.7550 91.4998
v  69.9249 2.7550 53.6537
v  46.8096 2.7550 53.4808
v  23.0052 2.7550 92.2996
v  70.1050 1.8373 53.0519
v  95.8739 1.8373 91.5651
v  70.0690 2.2311 53.1723
v  95.7486 2.2311 91.5520
v  46.6072 1.8373 52.8843
v  46.6477 2.2311 53.0036
v  22.3831 1.8373 92.3874
v  22.5076 2.2311 92.3698
v  95.5398 2.5370 91.5303
v  70.0090 2.5370 53.3729
v  46.7152 2.5370 53.2024
v  22.7149 2.5370 92.3405
# 36 vertices

vn 0.1267 -0.8804 0.4570
vn -0.1160 -0.8902 0.4405
vn -0.0973 -0.9852 -0.1408
vn 0.0960 -0.9853 -0.1412
vn 0.1267 0.8804 0.4570
vn 0.0960 0.9853 -0.1412
vn -0.0973 0.9852 -0.1408
vn -0.1160 0.8902 0.4405
vn 0.8832 -0.1763 0.4346
vn 0.4577 -0.1889 -0.8688
vn 0.4737 0.0095 -0.8806
vn 0.8856 0.0091 0.4644
vn -0.4693 -0.1894 -0.8625
vn -0.4849 0.0096 -0.8745
vn -0.8691 -0.1761 0.4622
vn -0.8707 0.0090 0.4916
vn 0.6520 -0.6299 0.4221
vn -0.6392 -0.6305 0.4404
vn -0.3605 -0.6931 -0.6243
vn 0.3525 -0.6945 -0.6272
vn 0.9292 -0.0890 0.3586
vn 0.0385 0.9961 -0.0791
vn -0.0385 0.9964 -0.0761
vn -0.9169 -0.0893 0.3889
vn 0.6435 0.6490 0.4058
vn 0.3279 -0.7452 -0.5806
vn -0.3293 -0.7541 -0.5682
vn -0.6309 0.6497 0.4240
vn 0.4725 0.0443 -0.8802
vn 0.8861 0.0420 0.4615
vn 0.4699 0.1083 -0.8761
vn 0.8823 0.1025 0.4593
vn -0.4837 0.0446 -0.8741
vn -0.4810 0.1090 -0.8699
vn -0.8714 0.0419 0.4888
vn -0.8676 0.1025 0.4865
vn 0.8674 0.2005 0.4555
vn 0.4619 0.2128 -0.8610
vn -0.4727 0.2139 -0.8549
vn -0.8529 0.2004 0.4821
# 40 vertex normals

vt 0.9631 0.0474 0.0000
vt 0.9631 0.9526 0.0000
vt 0.0369 0.9526 0.0000
vt 0.0369 0.0474 0.0000
vt 0.0000 0.1616 0.0000
vt 1.0000 0.1616 0.0000
vt 1.0000 0.4722 0.0000
vt 0.0000 0.4722 0.0000
vt 1.0000 0.0000 0.0000
vt 1.0000 1.0000 0.0000
vt 0.0000 1.0000 0.0000
vt 0.0000 0.0000 0.0000
vt 1.0000 0.6553 0.0000
vt 0.0000 0.6553 0.0000
vt 1.0000 0.8384 0.0000
vt 0.0000 0.8384 0.0000
vt 0.0000 0.9192 0.0000
vt 1.0000 0.9192 0.0000
# 18 texture coords

o Box003
g Box003
usemtl wire_118037029
s 1
f 1/1/1 2/2/2 3/3/3 4/4/4 
f 5/4/5 6/1/6 7/2/7 8/3/8 
s 2
f 9/5/9 10/6/10 11/7/11 12/8/12 
s 4
f 10/5/10 13/6/13 14/7/14 11/8/11 
s 2
f 13/5/13 15/6/15 16/7/16 14/8/14 
s 4
f 15/5/15 9/6/9 12/7/12 16/8/16 
f 2/2/2 1/1/1 17/9/17 18/10/18 
s 1
f 3/3/3 2/2/2 18/10/18 19/11/19 
f 4/4/4 3/3/3 19/11/19 20/12/20 
f 1/1/1 4/4/4 20/12/20 17/9/17 
f 6/1/6 5/4/5 21/12/21 22/9/22 
f 7/2/7 6/1/6 22/9/22 23/10/23 
f 8/3/8 7/2/7 23/10/23 24/11/24 
s 2
f 5/4/5 8/3/8 24/11/24 21/12/21 
f 10/6/10 9/5/9 17/12/17 20/9/20 
s 1
f 21/11/25 22/10/26 22/10/22 21/11/21 
s 4
f 13/6/13 10/5/10 20/12/20 19/9/19 
s 1
f 22/11/26 23/10/27 23/10/23 22/11/22 
s 2
f 15/6/15 13/5/13 19/12/19 18/9/18 
s 1
f 23/11/27 24/10/28 24/10/24 23/11/23 
s 4
f 9/6/9 15/5/15 18/12/18 17/9/17 
s 1
f 24/11/28 21/10/25 21/10/21 24/11/24 
s 2
f 12/8/12 11/7/11 25/13/29 26/14/30 
f 26/14/30 25/13/29 27/15/31 28/16/32 
s 4
f 11/8/11 14/7/14 29/13/33 25/14/29 
f 25/14/29 29/13/33 30/15/34 27/16/31 
s 2
f 14/8/14 16/7/16 31/13/35 29/14/33 
f 29/14/33 31/13/35 32/15/36 30/16/34 
s 4
f 16/8/16 12/7/12 26/13/30 31/14/35 
f 31/14/35 26/13/30 28/15/32 32/16/36 
s 2
f 22/10/26 21/11/25 33/17/37 34/18/38 
f 34/18/38 33/17/37 28/16/32 27/15/31 
s 4
f 23/10/27 22/11/26 34/17/38 35/18/39 
f 35/18/39 34/17/38 27/16/31 30/15/34 
s 2
f 24/10/28 23/11/27 35/17/39 36/18/40 
f 36/18/40 35/17/39 30/16/34 32/15/36 
s 4
f 21/10/25 24/11/28 36/17/40 33/18/37 
f 33/18/37 36/17/40 32/16/36 28/15/32 
# 38 polygons

