# 3ds Max Wavefront OBJ Exporter v0.99 - (c)2007 guruware
# File Created: 23.10.2024 15:42:59

mtllib Normal_Tile.mtl

#
# object Box001
#

v  -14.2550 0.0000 7.3341
v  -14.2550 0.0000 -25.4617
v  28.8538 0.0000 -25.4617
v  28.8538 0.0000 7.3341
v  -14.2550 2.8710 7.3341
v  28.8538 2.8710 7.3341
v  28.8538 2.8710 -25.4617
v  -14.2550 2.8710 -25.4617
v  -15.9732 0.4640 9.0524
v  30.5721 0.4640 9.0524
v  30.5721 2.4070 9.0524
v  -15.9732 2.4070 9.0524
v  30.5721 0.4640 -27.1799
v  30.5721 2.4070 -27.1799
v  -15.9732 0.4640 -27.1799
v  -15.9732 2.4070 -27.1799
v  -15.5436 0.1160 8.6228
v  -15.5436 0.1160 -26.7503
v  30.1425 0.1160 -26.7503
v  30.1425 0.1160 8.6228
v  -15.5436 2.7550 8.6228
v  30.1425 2.7550 8.6228
v  30.1425 2.7550 -26.7503
v  -15.5436 2.7550 -26.7503
# 24 vertices

vn -0.1212 -0.9852 0.1212
vn -0.1212 -0.9852 -0.1212
vn 0.1212 -0.9852 -0.1212
vn 0.1212 -0.9852 0.1212
vn -0.1212 0.9852 0.1212
vn 0.1212 0.9852 0.1212
vn 0.1212 0.9852 -0.1212
vn -0.1212 0.9852 -0.1212
vn -0.6928 -0.2000 0.6928
vn 0.6928 -0.2000 0.6928
vn 0.6928 0.2000 0.6928
vn -0.6928 0.2000 0.6928
vn 0.6928 -0.2000 -0.6928
vn 0.6928 0.2000 -0.6928
vn -0.6928 -0.2000 -0.6928
vn -0.6928 0.2000 -0.6928
vn -0.5135 -0.6874 0.5135
vn -0.5135 -0.6874 -0.5135
vn 0.5135 -0.6874 -0.5135
vn 0.5135 -0.6874 0.5135
vn -0.5135 0.6874 0.5135
vn 0.5135 0.6874 0.5135
vn 0.5135 0.6874 -0.5135
vn -0.5135 0.6874 -0.5135
# 24 vertex normals

vt 0.9631 0.0474 0.0000
vt 0.9631 0.9526 0.0000
vt 0.0369 0.9526 0.0000
vt 0.0369 0.0474 0.0000
vt 0.0000 0.1616 0.0000
vt 1.0000 0.1616 0.0000
vt 1.0000 0.8384 0.0000
vt 0.0000 0.8384 0.0000
vt 1.0000 0.0000 0.0000
vt 1.0000 1.0000 0.0000
vt 0.0000 1.0000 0.0000
vt 0.0000 0.0000 0.0000
# 12 texture coords

o Box001
g Box001
usemtl wire_118037029
s 1
f 1/1/1 2/2/2 3/3/3 4/4/4 
f 5/4/5 6/1/6 7/2/7 8/3/8 
s 2
f 9/5/9 10/6/10 11/7/11 12/8/12 
s 4
f 10/5/10 13/6/13 14/7/14 11/8/11 
s 2
f 13/5/13 15/6/15 16/7/16 14/8/14 
s 4
f 15/5/15 9/6/9 12/7/12 16/8/16 
s 1
f 2/2/2 1/1/1 17/9/17 18/10/18 
f 3/3/3 2/2/2 18/10/18 19/11/19 
f 4/4/4 3/3/3 19/11/19 20/12/20 
f 1/1/1 4/4/4 20/12/20 17/9/17 
f 6/1/6 5/4/5 21/12/21 22/9/22 
f 7/2/7 6/1/6 22/9/22 23/10/23 
f 8/3/8 7/2/7 23/10/23 24/11/24 
f 5/4/5 8/3/8 24/11/24 21/12/21 
s 2
f 10/6/10 9/5/9 17/12/17 20/9/20 
f 12/8/12 11/7/11 22/10/22 21/11/21 
s 4
f 13/6/13 10/5/10 20/12/20 19/9/19 
f 11/8/11 14/7/14 23/10/23 22/11/22 
s 2
f 15/6/15 13/5/13 19/12/19 18/9/18 
f 14/8/14 16/7/16 24/10/24 23/11/23 
s 4
f 9/6/9 15/5/15 18/12/18 17/9/17 
f 16/8/16 12/7/12 21/10/21 24/11/24 
# 22 polygons

